<svg width="562" height="330" viewBox="0 0 562 330" fill="none" xmlns="http://www.w3.org/2000/svg">
<ellipse cx="101" cy="313.5" rx="16" ry="16.5" fill="url(#paint0_linear)"/>
<path d="M100 283L200 25.6233C200 25.6233 100 83.2757 100 25.6233C100 -32.0291 0 25.6233 0 25.6233C83.5 109.013 100 283 100 283Z" fill="url(#paint1_linear)"/>
<path d="M214.5 137.346L238.5 113.346V241.346C355.849 205.23 328.532 29.8302 208.5 118.346H201C329.496 -15.1342 421.191 232.069 214.5 253.346V137.346Z" fill="url(#paint2_linear)"/>
<path d="M354.634 220.5C352.234 180.9 382.634 163 398.134 159L389.134 172C361.134 211.5 392.134 259 417.134 234C437.134 214 419.467 191 408.134 182L414.634 159C424.967 166.667 444.334 189.7 439.134 220.5C432.634 259 357.634 270 354.634 220.5Z" fill="url(#paint3_linear)"/>
<path d="M482.5 77L458.5 85.5V253.5L482.5 244V77Z" fill="url(#paint4_linear)"/>
<path d="M538.5 110L517 118V159H510L504.5 171.5H517.5V236.5C529.1 261.3 547.667 246.833 555.5 236.5L552.5 233C542.9 243.4 539.167 237.333 538.5 233V171.5H556L561.5 159H538.5V110Z" fill="url(#paint5_linear)"/>
<defs>
<linearGradient id="paint0_linear" x1="101" y1="297" x2="101" y2="330" gradientUnits="userSpaceOnUse">
<stop stop-color="#881166"/>
<stop offset="1" stop-color="#442277"/>
</linearGradient>
<linearGradient id="paint1_linear" x1="100" y1="0" x2="100" y2="283" gradientUnits="userSpaceOnUse">
<stop stop-color="#881166"/>
<stop offset="1" stop-color="#442277"/>
</linearGradient>
<linearGradient id="paint2_linear" x1="268.712" y1="79" x2="268.712" y2="253.346" gradientUnits="userSpaceOnUse">
<stop stop-color="#881166"/>
<stop offset="1" stop-color="#442277"/>
</linearGradient>
<linearGradient id="paint3_linear" x1="397.252" y1="159" x2="397.252" y2="253.628" gradientUnits="userSpaceOnUse">
<stop stop-color="#881166"/>
<stop offset="1" stop-color="#442277"/>
</linearGradient>
<linearGradient id="paint4_linear" x1="510" y1="77" x2="510" y2="253.5" gradientUnits="userSpaceOnUse">
<stop stop-color="#881166"/>
<stop offset="1" stop-color="#442277"/>
</linearGradient>
<linearGradient id="paint5_linear" x1="510" y1="77" x2="510" y2="253.5" gradientUnits="userSpaceOnUse">
<stop stop-color="#881166"/>
<stop offset="1" stop-color="#442277"/>
</linearGradient>
</defs>
</svg>
